PathFileType	4	(X/Y/Z)	/Users/itak/Documents/Research/Walk-IL/dataset/trc/00413_00012.trc
DataRate	CameraRate	NumFrames	NumMarkers	Units	OrigDataRate	OrigDataStartFrame	OrigNumFrames
100.000000	100.000000	4	53	mm	100.000000	72	576
Frame#	Time	RPSI			LPSI			L3			STRN			T10			C7			CLAV			RBAK			LBAK			LSHO			LUPA			LAEL			LAOL			LWTS			LWPS			LFRA			LIFD			LHPS			LHTS			RSHO			RUPA			RAEL			RAOL			RWTS			RWPS			RFRA			RIFD			RHTS			RHPS			RBHD			LFHD			RFHD			LBHD			LHIP			RHIP			RASI			LASI			LKNE			LTHI			LANK			LTIP			LTOE			LMT1			LMT5			LHEE			RKNE			RTHI			RANK			RTIP			RTOE			RMT1			RMT5			RHEE			
		X1	Y1	Z1	X2	Y2	Z2	X3	Y3	Z3	X4	Y4	Z4	X5	Y5	Z5	X6	Y6	Z6	X7	Y7	Z7	X8	Y8	Z8	X9	Y9	Z9	X10	Y10	Z10	X11	Y11	Z11	X12	Y12	Z12	X13	Y13	Z13	X14	Y14	Z14	X15	Y15	Z15	X16	Y16	Z16	X17	Y17	Z17	X18	Y18	Z18	X19	Y19	Z19	X20	Y20	Z20	X21	Y21	Z21	X22	Y22	Z22	X23	Y23	Z23	X24	Y24	Z24	X25	Y25	Z25	X26	Y26	Z26	X27	Y27	Z27	X28	Y28	Z28	X29	Y29	Z29	X30	Y30	Z30	X31	Y31	Z31	X32	Y32	Z32	X33	Y33	Z33	X34	Y34	Z34	X35	Y35	Z35	X36	Y36	Z36	X37	Y37	Z37	X38	Y38	Z38	X39	Y39	Z39	X40	Y40	Z40	X41	Y41	Z41	X42	Y42	Z42	X43	Y43	Z43	X44	Y44	Z44	X45	Y45	Z45	X46	Y46	Z46	X47	Y47	Z47	X48	Y48	Z48	X49	Y49	Z49	X50	Y50	Z50	X51	Y51	Z51	X52	Y52	Z52	X53	Y53	Z53	

73	0.72	-857.112548828125	990.5780639648438	608.1743774414062	-858.0411987304688	983.7791137695312	476.9826049804688	-856.4096069335938	1058.092407226562	542.7905883789062	-617.396484375	1215.163818359375	560.3388671875	-859.9713745117188	1159.214599609375	537.2587890625	-828.6260986328125	1409.60205078125	527.2481689453125	-671.7313842773438	1333.797485351562	554.021484375	-874.6376953125	1262.843994140625	592.191162109375	-825.3218383789062	1371.009887695312	421.3779602050781	-731.0252075195312	1389.12841796875	385.0673522949219	-732.1151733398438	1271.968872070312	311.8820495605469	-692.7584838867188	1074.449951171875	302.0198364257812	-765.8092651367188	1051.968383789062	338.9916076660156	-617.8562622070312	864.5125732421875	389.0161437988281	-634.9071655273438	848.5386352539062	309.9235229492188	-668.41015625	970.5816040039062	303.69140625	-613.7339477539062	685.1889038085938	392.9705200195312	-622.339599609375	763.1076049804688	327.1973571777344	-590.8827514648438	768.552978515625	382.3860473632812	-786.3502197265625	1389.431884765625	693.8148803710938	-801.4210815429688	1323.8505859375	752.7459716796875	-776.9443359375	1060.678466796875	792.3482055664062	-801.1278076171875	1052.6982421875	702.264404296875	-644.1915283203125	849.7929077148438	750.7511596679688	-677.6549072265625	837.3005981445312	814.490234375	-746.302734375	996.9524536132812	806.21337890625	-642.4344482421875	677.259521484375	748.1792602539062	-621.228271484375	744.1055908203125	766.4363403320312	-670.7250366210938	747.9962158203125	812.3612670898438	-811.5105590820312	1602.333984375	608.0696411132812	-641.9725952148438	1605.910400390625	501.1193542480469	-678.1582641601562	1615.171142578125	618.514404296875	-782.349365234375	1586.828491210938	449.0390014648438	-769.77099609375	970.5546264648438	363.3017272949219	-778.1787109375	965.0125122070312	725.476318359375	-644.302001953125	971.3779296875	672.279541015625	-654.2219848632812	967.8416748046875	409.0155944824219	-731.4771728515625	475.2504272460938	383.7434387207031	-735.2744750976562	618.5909423828125	372.8576049804688	-825.8275146484375	39.15958023071289	421.8514099121094	-781.5319213867188	244.8023376464844	390.9704895019531	-617.5419311523438	43.25627517700195	501.4932556152344	-698.2952270507812	44.7624626159668	525.1433715820312	-697.8082885742188	40.89350891113281	419.2943115234375	-867.5236206054688	36.71778106689453	476.3554382324219	-739.5641479492188	472.6378479003906	694.6859130859375	-698.0075073242188	735.8776245117188	722.051513671875	-815.3731079101562	56.93779754638672	658.150634765625	-736.1431274414062	345.2086181640625	678.4129028320312	-630.3538818359375	41.24231719970703	615.365966796875	-701.9869384765625	44.07183074951172	575.7675170898438	-734.2069702148438	45.39171981811523	672.0778198242188	-883.5650024414062	45.48337554931641	599.7584838867188	
74	0.73	-856.6390380859375	990.6773681640625	608.609375	-857.6553344726562	983.9198608398438	477.4381713867188	-855.9439086914062	1058.065307617188	543.2542114257812	-616.966796875	1215.134765625	560.9290161132812	-859.4622192382812	1159.11572265625	537.7437133789062	-828.2442016601562	1409.5859375	527.8074951171875	-671.3385620117188	1333.793090820312	554.627685546875	-874.2363891601562	1262.685791015625	592.7200927734375	-824.9131469726562	1371.032104492188	421.939453125	-730.5973510742188	1389.16064453125	385.6700134277344	-731.6527709960938	1272.018432617188	312.461181640625	-692.2803955078125	1074.479858398438	302.6228332519531	-765.4718627929688	1052.03857421875	339.4615783691406	-617.5202026367188	864.5307006835938	389.6572570800781	-634.4801635742188	848.5421752929688	310.5472412109375	-667.9732055664062	970.6076049804688	304.2814636230469	-613.4452514648438	685.2002563476562	393.6310424804688	-621.9548950195312	763.1002197265625	327.8394470214844	-590.4754638671875	768.5782470703125	383.0714721679688	-786.0225219726562	1389.333740234375	694.40478515625	-801.14013671875	1323.71923828125	753.3236083984375	-776.6287841796875	1060.547729492188	792.8765869140625	-800.66650390625	1052.600341796875	702.7378540039062	-643.787841796875	849.739990234375	751.4361572265625	-677.2930908203125	837.2260131835938	815.1128540039062	-746.0511474609375	996.8696899414062	806.7776489257812	-642.0794067382812	677.21630859375	748.8778686523438	-620.8082275390625	744.0556030273438	767.1609497070312	-670.3525390625	747.9037475585938	813.0294189453125	-810.84619140625	1602.421997070312	608.6304931640625	-641.4368896484375	1605.686279296875	501.6372375488281	-677.5316772460938	1615.057250976562	619.0538940429688	-781.8464965820312	1586.8291015625	449.625	-769.3447875976562	970.6672973632812	363.773193359375	-777.7102661132812	964.864501953125	725.8409423828125	-643.8759765625	971.2987670898438	672.7045288085938	-653.854736328125	967.8905029296875	409.4456481933594	-731.6327514648438	475.3620300292969	383.9627380371094	-735.32666015625	618.6979370117188	373.1585693359375	-825.8048706054688	39.21169662475586	421.9053344726562	-781.7172241210938	244.9636077880859	391.0860290527344	-617.5338134765625	43.26300811767578	501.4739990234375	-698.3934326171875	44.71225738525391	525.1173095703125	-697.8042602539062	40.9024772644043	419.2791442871094	-867.478515625	36.7614631652832	476.4154663085938	-739.525634765625	472.5429077148438	695.0473022460938	-697.7089233398438	735.819580078125	722.4428100585938	-815.365966796875	56.88975524902344	658.20068359375	-736.0305786132812	345.1504821777344	678.6890869140625	-630.3233032226562	41.19801712036133	615.3995361328125	-701.9736938476562	44.08784484863281	575.8169555664062	-734.1968383789062	45.32964324951172	672.1798095703125	-883.575927734375	45.50391006469727	599.8045043945312	
75	0.74	-856.1773681640625	990.7722778320312	609.0460815429688	-857.2869873046875	984.0538330078125	477.8964538574219	-855.4910278320312	1058.065063476562	543.7274780273438	-616.5422973632812	1215.103637695312	561.5093994140625	-858.9078979492188	1159.04296875	538.2191772460938	-827.85205078125	1409.583251953125	528.387451171875	-670.94189453125	1333.797973632812	555.2283935546875	-873.8239135742188	1262.5439453125	593.2494506835938	-824.496337890625	1371.067504882812	422.5030212402344	-730.1595458984375	1389.202270507812	386.2718505859375	-731.1910400390625	1272.07763671875	313.0322570800781	-691.7926635742188	1074.526733398438	303.2148132324219	-765.116455078125	1052.115112304688	339.9089660644531	-617.1509399414062	864.5714111328125	390.2939453125	-634.0039672851562	848.56884765625	311.17138671875	-667.501220703125	970.652587890625	304.8640747070312	-613.0694580078125	685.2445678710938	394.2966613769531	-621.505615234375	763.1240234375	328.4815979003906	-590.0089721679688	768.6318359375	383.7600402832031	-785.6744384765625	1389.240600585938	694.996337890625	-800.83154296875	1323.591918945312	753.9010620117188	-776.2960815429688	1060.42138671875	793.39990234375	-800.20166015625	1052.5009765625	703.2099609375	-643.382080078125	849.6829223632812	752.121826171875	-676.9215087890625	837.1610717773438	815.731201171875	-745.7848510742188	996.7874145507812	807.3356323242188	-641.7415161132812	677.1691284179688	749.5859375	-620.4119873046875	744.0042724609375	767.8943481445312	-669.9627075195312	747.8106079101562	813.7003784179688	-810.1708984375	1602.519897460938	609.2047119140625	-640.8919677734375	1605.474365234375	502.1632690429688	-676.8963012695312	1614.950073242188	619.6051025390625	-781.3345947265625	1586.845703125	450.2239074707031	-768.9315795898438	970.7824096679688	364.2529296875	-777.2554931640625	964.740478515625	726.219970703125	-643.4602661132812	971.2330932617188	673.1212768554688	-653.5147705078125	967.9385986328125	409.8682250976562	-731.7535400390625	475.4806213378906	384.1874084472656	-735.367431640625	618.80419921875	373.4662780761719	-825.7875366210938	39.27065658569336	421.9577026367188	-781.872802734375	245.1173858642578	391.2115173339844	-617.5217895507812	43.26837158203125	501.4533996582031	-698.4991455078125	44.66024780273438	525.095703125	-697.8004760742188	40.91441345214844	419.2672424316406	-867.4329223632812	36.80741500854492	476.4775390625	-739.5118408203125	472.4611511230469	695.4183349609375	-697.439697265625	735.769287109375	722.8399658203125	-815.357666015625	56.83472061157227	658.2543334960938	-735.9625854492188	345.1113586425781	678.9729614257812	-630.2986450195312	41.16143035888672	615.433837890625	-701.9605712890625	44.10554885864258	575.869384765625	-734.184814453125	45.27645492553711	672.2798461914062	-883.5867309570312	45.51939010620117	599.8494262695312	
76	0.75	-855.7313842773438	990.8554077148438	609.484619140625	-856.9435424804688	984.1801147460938	478.3572082519531	-855.0564575195312	1058.090942382812	544.2120971679688	-616.1277465820312	1215.07275390625	562.074951171875	-858.3215942382812	1158.999267578125	538.6879272460938	-827.4505615234375	1409.593994140625	528.9840698242188	-670.5439453125	1333.810424804688	555.8204956054688	-873.4000244140625	1262.424072265625	593.778076171875	-824.0734252929688	1371.116333007812	423.0674438476562	-729.7149047851562	1389.251831054688	386.870361328125	-730.7315673828125	1272.145874023438	313.5945434570312	-691.3023681640625	1074.590698242188	303.7923889160156	-764.7427978515625	1052.195922851562	340.3328552246094	-616.7483520507812	864.634521484375	390.9238586425781	-633.4826049804688	848.6184692382812	311.7922668457031	-666.9986572265625	970.7158203125	305.4358520507812	-612.6057739257812	685.3206787109375	394.9625854492188	-620.9932250976562	763.1796875	329.1201782226562	-589.4888916015625	768.7128295898438	384.4467468261719	-785.3050537109375	1389.155883789062	695.58642578125	-800.4937133789062	1323.475463867188	754.4762573242188	-775.9459838867188	1060.303955078125	793.91650390625	-799.7371826171875	1052.40380859375	703.6819458007812	-642.9741821289062	849.6228637695312	752.8026123046875	-676.5464477539062	837.1055297851562	816.3427734375	-745.4993896484375	996.7059936523438	807.8851318359375	-641.4190673828125	677.117919921875	750.2970581054688	-620.0372314453125	743.9540405273438	768.6300048828125	-669.5623779296875	747.7211303710938	814.3675537109375	-809.4885864257812	1602.62646484375	609.7906494140625	-640.339111328125	1605.276245117188	502.694580078125	-676.2530517578125	1614.85205078125	620.1643676757812	-780.81396484375	1586.87890625	450.8336791992188	-768.54833984375	970.8983154296875	364.7328186035156	-776.819091796875	964.6484375	726.6185913085938	-643.054443359375	971.1798706054688	673.5274047851562	-653.2056274414062	967.9853515625	410.279541015625	-731.8314819335938	475.6027526855469	384.4185180664062	-735.3919677734375	618.9085693359375	373.7771911621094	-825.776611328125	39.33707809448242	422.0074157714844	-781.9879150390625	245.2594757080078	391.3504943847656	-617.505615234375	43.27157592773438	501.4317932128906	-698.6025390625	44.60977554321289	525.079345703125	-697.7959594726562	40.92923355102539	419.2591247558594	-867.3863525390625	36.85491180419922	476.541748046875	-739.516845703125	472.391845703125	695.7943725585938	-697.2030639648438	735.7269287109375	723.2446899414062	-815.346435546875	56.77396392822266	658.3119506835938	-735.9348754882812	345.0887451171875	679.2621459960938	-630.2811279296875	41.13207244873047	615.4668579101562	-701.94873046875	44.12458419799805	575.9226684570312	-734.1718139648438	45.23215484619141	672.3750610351562	-883.5978393554688	45.53086853027344	599.892822265625	
